<svg id="Layer_1" data-name="Layer 1" xmlns="http://www.w3.org/2000/svg" viewBox="0 0 161.81 74.64"><defs><style>.cls-1,.cls-2,.cls-3{fill:none;stroke-miterlimit:10;stroke-width:3px;}.cls-1{stroke:#231f20;}.cls-2{stroke:#9b2d24;}.cls-3{stroke:#1a3d66;}.cls-4{fill:#183769;}.cls-5{fill:#941520;}</style></defs><path class="cls-1" d="M894.29,571.27c1.52-1.83,1.79-5.79,1.79-5.79-11.67-2.8-19.22-11.55-18.89-19.52a18.36,18.36,0,0,1,5.34-11.77,19.86,19.86,0,0,1,5.76-3.72,37,37,0,0,1,21.56-2.56,36.58,36.58,0,0,1,13.6,5.65,29.24,29.24,0,0,1,6.49,6.17A15.25,15.25,0,0,1,932.56,550c-.7,6-5.12,9.65-7.07,11.25a23.81,23.81,0,0,1-9.47,4.5,31.65,31.65,0,0,1-11.88.89A15.65,15.65,0,0,1,891,574.27,14.36,14.36,0,0,0,894.29,571.27Z" transform="translate(-875.68 -501.14)"/><path class="cls-2" d="M998.25,564.89c1.52-1.83,1.17-4.95,1.17-4.95-11.67-2.8-19.22-11.55-18.89-19.52a18.36,18.36,0,0,1,5.34-11.77,20,20,0,0,1,5.75-3.71,36,36,0,0,1,35.16,3.08,24.16,24.16,0,0,1,6.92,6.88,14.16,14.16,0,0,1,2.19,9.61c-.7,6-5.11,9.65-7.07,11.25a23.81,23.81,0,0,1-9.47,4.5,31.35,31.35,0,0,1-11.87.88,16.59,16.59,0,0,1-5.08,5.19,16.23,16.23,0,0,1-8.11,2.4A31,31,0,0,0,998.25,564.89Z" transform="translate(-875.68 -501.14)"/><path class="cls-3" d="M964.36,546.25c-1.51-1.83-1.15-5.45-1.15-5.45,11.67-2.81,19.22-11.55,18.89-19.52a15.67,15.67,0,0,0-4.67-11.09,23.62,23.62,0,0,0-6.42-4.4,37,37,0,0,0-21.56-2.56,36.58,36.58,0,0,0-13.6,5.65,24.09,24.09,0,0,0-6.91,6.87,14.15,14.15,0,0,0-2.2,9.61c.7,6,5.12,9.65,7.07,11.25a23.81,23.81,0,0,0,9.47,4.5,31.64,31.64,0,0,0,11.88.89,15.65,15.65,0,0,0,13.18,7.59A16.55,16.55,0,0,1,964.36,546.25Z" transform="translate(-875.68 -501.14)"/><path d="M896.7,535.59h8.21c4.84,0,8.81,1.68,8.81,7.11,0,5.24-4,7.5-8.81,7.5h-3v8.21H896.7Zm7.79,10.51c2.72,0,4.18-1.16,4.18-3.4s-1.46-3-4.18-3h-2.63v6.41Zm-.52,2.74,3.57-3.3,7.28,12.87h-5.77Z" transform="translate(-875.68 -501.14)"/><path class="cls-4" d="M947.39,510.74h14.3v4.33h-9.14v4.58h7.78V524h-7.78v5.25H962v4.33H947.39Z" transform="translate(-875.68 -501.14)"/><path class="cls-5" d="M998.57,550.17l3-3.54a9.13,9.13,0,0,0,5.61,2.39c2.15,0,3.2-.85,3.2-2.21s-1.29-1.89-3.29-2.71l-3-1.27c-2.36-1-4.6-2.9-4.6-6.22,0-3.78,3.37-6.8,8.12-6.8a10.56,10.56,0,0,1,7.34,3l-2.6,3.25a7.45,7.45,0,0,0-4.74-1.78c-1.78,0-2.91.74-2.91,2s1.49,1.91,3.49,2.7l2.9,1.18c2.79,1.13,4.53,3,4.53,6.21,0,3.79-3.16,7.07-8.6,7.07A12.59,12.59,0,0,1,998.57,550.17Z" transform="translate(-875.68 -501.14)"/></svg>