<svg id="Layer_1" data-name="Layer 1" xmlns="http://www.w3.org/2000/svg" viewBox="0 0 161.95 74.88"><defs><style>.cls-1,.cls-2,.cls-3,.cls-7{fill:none;}.cls-1{stroke:#fff;}.cls-1,.cls-2,.cls-3,.cls-4,.cls-5,.cls-6,.cls-7{stroke-miterlimit:10;}.cls-1,.cls-2,.cls-3{stroke-width:3px;}.cls-2{stroke:#d24c2d;}.cls-3{stroke:#003d79;}.cls-4{font-size:33.78px;fill:#fff;font-family:Arial-BoldMT, Arial;font-weight:700;}.cls-4,.cls-5,.cls-6,.cls-7{stroke:#231f20;stroke-width:0.5px;}.cls-5{fill:#003d79;}.cls-6{fill:#d24c2d;}</style></defs><path class="cls-1" d="M894.29,571.27c1.52-1.83,1.79-5.79,1.79-5.79-11.67-2.8-19.22-11.55-18.89-19.52a18.36,18.36,0,0,1,5.34-11.77,19.86,19.86,0,0,1,5.76-3.72,37,37,0,0,1,21.56-2.56,36.58,36.58,0,0,1,13.6,5.65,29.24,29.24,0,0,1,6.49,6.17A15.25,15.25,0,0,1,932.56,550c-.7,6-5.12,9.65-7.07,11.25a23.81,23.81,0,0,1-9.47,4.5,31.65,31.65,0,0,1-11.88.89A15.65,15.65,0,0,1,891,574.27,14.36,14.36,0,0,0,894.29,571.27Z" transform="translate(-875.61 -500.91)"/><path class="cls-2" d="M998.25,564.89c1.52-1.83,1.17-4.95,1.17-4.95-11.67-2.8-19.22-11.55-18.89-19.52a18.36,18.36,0,0,1,5.34-11.77,20,20,0,0,1,5.75-3.71,36,36,0,0,1,35.16,3.08,24.16,24.16,0,0,1,6.92,6.88,14.16,14.16,0,0,1,2.19,9.61c-.7,6-5.11,9.65-7.07,11.25a23.81,23.81,0,0,1-9.47,4.5,31.35,31.35,0,0,1-11.87.88,16.59,16.59,0,0,1-5.08,5.19,16.23,16.23,0,0,1-8.11,2.4A31,31,0,0,0,998.25,564.89Z" transform="translate(-875.61 -500.91)"/><path class="cls-3" d="M964.36,546.25c-1.51-1.83-1.15-5.45-1.15-5.45,11.67-2.81,19.22-11.55,18.89-19.52a15.67,15.67,0,0,0-4.67-11.09,23.62,23.62,0,0,0-6.42-4.4,37,37,0,0,0-21.56-2.56,36.58,36.58,0,0,0-13.6,5.65,24.09,24.09,0,0,0-6.91,6.87,14.15,14.15,0,0,0-2.2,9.61c.7,6,5.12,9.65,7.07,11.25a23.81,23.81,0,0,0,9.47,4.5,31.64,31.64,0,0,0,11.88.89,15.65,15.65,0,0,0,13.18,7.59A16.55,16.55,0,0,1,964.36,546.25Z" transform="translate(-875.61 -500.91)"/><text class="cls-4" transform="translate(17.05 57.54) scale(0.92 1)">R</text><path class="cls-5" d="M947.39,510.74h14.3v4.33h-9.14v4.58h7.78V524h-7.78v5.25H962v4.33H947.39Z" transform="translate(-875.61 -500.91)"/><path class="cls-6" d="M998.57,550.17l3-3.54a9.13,9.13,0,0,0,5.61,2.39c2.15,0,3.2-.85,3.2-2.21s-1.29-1.89-3.29-2.71l-3-1.27c-2.36-1-4.6-2.9-4.6-6.22,0-3.78,3.37-6.8,8.12-6.8a10.56,10.56,0,0,1,7.34,3l-2.6,3.25a7.45,7.45,0,0,0-4.74-1.78c-1.78,0-2.91.74-2.91,2s1.49,1.91,3.49,2.7l2.9,1.18c2.79,1.13,4.53,3,4.53,6.21,0,3.79-3.16,7.07-8.6,7.07A12.59,12.59,0,0,1,998.57,550.17Z" transform="translate(-875.61 -500.91)"/><path class="cls-7" d="M996,565.38a10.07,10.07,0,0,0,1.94-4.45c-12.23-3-19.09-12.34-18.75-20.83a19.77,19.77,0,0,1,5.6-12.55,21,21,0,0,1,6-4,37.21,37.21,0,0,1,36.83,3.29,30.54,30.54,0,0,1,6.8,6.58,16.43,16.43,0,0,1,2.74,11c-.73,6.44-5.35,10.78-7.4,12.48a23.87,23.87,0,0,1-9.6,4.8,30.92,30.92,0,0,1-12,1.16,19.64,19.64,0,0,1-5.79,5.24c-3,2-10.91,2.09-12.51,2C990,570.13,994.49,567.35,996,565.38Z" transform="translate(-875.61 -500.91)"/><path class="cls-7" d="M1000.6,563a7.83,7.83,0,0,0,.16-4.09c-11-2.56-19.18-11.47-18.86-18.75A16.44,16.44,0,0,1,987,529.39a18.73,18.73,0,0,1,5.45-3.4,36.28,36.28,0,0,1,20.41-2.34,35.68,35.68,0,0,1,12.88,5.16,27.47,27.47,0,0,1,6.14,5.64,13.54,13.54,0,0,1,2.47,9.42c-.66,5.52-4.84,9.24-6.68,10.7a22,22,0,0,1-8.68,4.11,37.07,37.07,0,0,1-12.29.94c-2.34,2.87-2.56,3.75-3.49,4.51-1.6,1.31-2.9,2.33-4.34,2.25A8.78,8.78,0,0,0,1000.6,563Z" transform="translate(-875.61 -500.91)"/><path class="cls-7" d="M892.68,571a10.07,10.07,0,0,0,1.94-4.45c-12.23-3-19.09-12.34-18.75-20.84a19.75,19.75,0,0,1,5.6-12.54,21,21,0,0,1,6-4,37.21,37.21,0,0,1,36.83,3.29,30.32,30.32,0,0,1,6.8,6.58,16.4,16.4,0,0,1,2.74,11c-.73,6.45-5.35,10.78-7.4,12.49a23.81,23.81,0,0,1-9.6,4.8,31.12,31.12,0,0,1-12,1.16,19.91,19.91,0,0,1-5.79,5.24c-3,2-11.14,1.85-12.74,1.76C886.39,575.5,891.15,573,892.68,571Z" transform="translate(-875.61 -500.91)"/><path class="cls-7" d="M897.26,568.59a7.82,7.82,0,0,0,.16-4.09c-11-2.56-19.18-11.47-18.86-18.75A16.48,16.48,0,0,1,883.61,535a19.05,19.05,0,0,1,5.45-3.39,36.18,36.18,0,0,1,20.41-2.34,35.61,35.61,0,0,1,12.88,5.16,27.24,27.24,0,0,1,6.14,5.64,13.52,13.52,0,0,1,2.47,9.42c-.66,5.52-4.83,9.24-6.68,10.7a22.09,22.09,0,0,1-8.68,4.11,37.62,37.62,0,0,1-12.29.94c-1.86,3.06-2.56,3.75-3.49,4.5-1.6,1.31-3.11,2.35-4.55,2.27A7.67,7.67,0,0,0,897.26,568.59Z" transform="translate(-875.61 -500.91)"/><path class="cls-7" d="M966,545.82a5.62,5.62,0,0,1-1.37-4c12.23-3,19.09-12.34,18.75-20.83a19.73,19.73,0,0,0-5.59-12.54,21.34,21.34,0,0,0-6-4A37.22,37.22,0,0,0,935,507.81a30.75,30.75,0,0,0-6.8,6.58,16.4,16.4,0,0,0-2.74,11c.73,6.44,5.36,10.78,7.4,12.48a23.74,23.74,0,0,0,9.6,4.8,31.17,31.17,0,0,0,12,1.17,19.77,19.77,0,0,0,5.79,5.23c3,2,11.48,1.84,13.08,1.75C973.24,550.8,967.56,547.78,966,545.82Z" transform="translate(-875.61 -500.91)"/><path class="cls-7" d="M962,543.91a12.47,12.47,0,0,1-.16-4.09c11-2.56,19.18-11.47,18.87-18.75a16.5,16.5,0,0,0-5.06-10.76,18.92,18.92,0,0,0-5.44-3.39,36.19,36.19,0,0,0-20.41-2.34A35.35,35.35,0,0,0,937,509.74a27.07,27.07,0,0,0-6.15,5.64,13.5,13.5,0,0,0-2.47,9.42c.66,5.52,4.84,9.24,6.69,10.69a22,22,0,0,0,8.67,4.12,37.62,37.62,0,0,0,12.29.94c2.34,2.86,2.56,3.75,3.49,4.5,1.6,1.31,2.59,2,4,1.93A5.54,5.54,0,0,1,962,543.91Z" transform="translate(-875.61 -500.91)"/></svg>